<?xml version="1.0" standalone="no"?>
<!DOCTYPE svg PUBLIC "-//W3C//DTD SVG 20010904//EN"
 "http://www.w3.org/TR/2001/REC-SVG-20010904/DTD/svg10.dtd">
<svg version="1.0" xmlns="http://www.w3.org/2000/svg"
 width="559.000000pt" height="288.000000pt" viewBox="0 0 559.000000 288.000000"
 preserveAspectRatio="xMidYMid meet">

<g transform="translate(0.000000,288.000000) scale(0.100000,-0.100000)"
fill="#000000" stroke="none">
<path d="M1185 2865 c-211 -33 -384 -113 -530 -246 -22 -20 -45 -29 -88 -34
-108 -13 -237 -68 -309 -133 -55 -49 -110 -136 -133 -207 -17 -54 -17 -59 -1
-70 9 -7 41 -16 70 -19 29 -4 67 -16 84 -26 53 -32 56 -52 33 -177 l-20 -110
-88 -89 c-124 -125 -187 -251 -199 -399 -15 -170 62 -251 154 -163 41 40 81
62 127 72 29 6 31 3 72 -73 128 -238 328 -424 596 -551 l106 -51 -1 -112 c-1
-123 16 -201 57 -273 49 -85 148 -149 247 -161 98 -12 128 15 102 92 -21 61
-15 92 42 211 47 95 49 102 49 187 l0 87 40 11 c66 18 96 38 190 129 87 84 92
87 148 94 91 12 108 56 51 133 -49 65 -166 113 -275 113 -69 0 -190 -30 -258
-64 -28 -14 -52 -26 -54 -26 -3 0 -15 24 -27 53 -37 84 -30 254 12 309 12 15
25 16 128 9 190 -15 409 8 570 60 162 53 298 156 355 269 35 70 57 93 128 137
87 53 99 93 44 148 -24 24 -56 40 -118 59 -47 14 -92 32 -101 39 -9 6 -24 46
-33 87 -10 41 -29 100 -43 130 -17 38 -25 75 -26 121 -1 52 -9 80 -35 133 -41
84 -73 106 -153 106 -50 0 -65 5 -106 35 -193 138 -527 205 -807 160z m320
-45 c49 -6 126 -20 170 -31 77 -20 239 -90 280 -122 20 -16 20 -16 -3 -37 -13
-12 -27 -32 -32 -45 -13 -35 -82 -42 -145 -14 -99 44 -272 5 -355 -81 -26 -27
-67 -58 -91 -70 -24 -12 -55 -33 -69 -46 -14 -13 -47 -39 -75 -57 -59 -38 -85
-78 -69 -104 13 -22 60 -28 108 -14 24 6 38 6 42 0 4 -6 36 -8 83 -3 76 6 77
6 95 -21 48 -73 211 -74 351 -2 62 31 90 61 107 112 11 35 17 40 46 43 19 2
32 -1 32 -8 0 -6 16 -18 36 -26 46 -19 117 -11 180 21 l45 23 24 -37 c14 -20
38 -87 53 -149 16 -64 38 -125 50 -140 47 -58 56 -85 56 -157 0 -56 -5 -80
-26 -121 -59 -113 -224 -218 -424 -270 -130 -34 -361 -44 -472 -20 -86 18
-164 52 -210 91 -30 25 -32 29 -17 45 23 25 20 47 -4 26 -31 -28 -102 -24
-151 8 -45 29 -60 27 -60 -9 0 -33 46 -56 113 -57 43 -1 58 -6 87 -32 19 -17
46 -39 60 -48 l25 -17 -33 0 c-64 -1 -227 63 -316 124 l-39 26 -29 -28 c-152
-144 -109 -437 86 -584 68 -52 140 -73 230 -67 60 4 91 13 172 51 128 59 200
79 288 80 94 0 164 -24 223 -77 59 -53 54 -69 -24 -85 -70 -14 -95 -29 -161
-101 -66 -74 -139 -113 -209 -114 -43 -1 -52 -4 -47 -16 40 -98 31 -186 -32
-315 -44 -90 -49 -106 -49 -169 0 -63 -2 -69 -24 -78 -43 -15 -127 17 -176 68
-77 78 -120 248 -99 387 l10 66 -105 53 c-203 102 -366 226 -472 358 -63 78
-145 232 -134 250 3 5 18 10 33 10 45 0 185 54 245 94 94 62 160 161 172 256
l6 45 -30 -55 c-58 -110 -155 -195 -272 -238 -31 -11 -102 -26 -157 -32 -143
-16 -191 -32 -251 -86 -29 -26 -57 -44 -65 -41 -21 8 -29 95 -16 168 30 167
171 347 351 450 57 32 55 33 -40 13 -25 -5 -29 -3 -26 12 2 11 9 48 15 84 16
87 64 229 108 315 52 104 107 181 191 268 216 224 494 316 836 277z m654 -198
c40 -20 67 -66 83 -145 12 -54 11 -58 -12 -83 -58 -63 -168 -84 -209 -40 -51
54 -79 198 -47 241 31 42 128 57 185 27z m-364 -103 c34 -33 65 -127 65 -193
0 -51 -3 -57 -37 -86 -50 -41 -147 -70 -235 -70 -67 0 -72 2 -103 34 -57 60
-82 220 -42 264 42 46 164 82 265 78 51 -2 67 -6 87 -27z m-1284 -74 c-45 -64
-112 -195 -134 -257 -6 -17 -8 -17 -39 1 -18 11 -60 25 -93 32 -33 7 -64 16
-69 20 -15 13 34 97 84 142 58 53 167 112 241 131 30 7 56 12 58 10 2 -2 -20
-37 -48 -79z m1423 3 c13 -57 14 -73 4 -80 -24 -15 -36 -8 -43 25 -4 17 -16
50 -26 71 -25 53 -24 56 15 56 34 0 34 0 50 -72z m-530 -185 c7 -22 5 -23 -53
-23 -55 0 -61 2 -67 24 -3 13 -4 38 -2 57 3 29 10 37 48 57 l45 22 11 -57 c6
-32 14 -68 18 -80z m-154 8 c0 -31 -18 -41 -73 -41 -36 0 -31 18 13 48 45 30
60 28 60 -7z m1213 -247 c155 -40 175 -94 58 -157 l-51 -28 0 29 c0 43 -19 92
-52 135 -16 20 -26 37 -22 37 3 0 34 -7 67 -16z m-1452 -510 c50 -31 163 -77
249 -100 36 -10 66 -19 68 -20 2 -1 -4 -28 -14 -59 -23 -81 -16 -232 14 -298
l21 -48 -27 -10 c-15 -6 -54 -13 -87 -16 -79 -7 -156 22 -224 83 -134 120
-173 350 -80 468 25 32 30 32 80 0z"/>
<path d="M2229 1984 c-18 -22 1 -49 36 -49 31 0 51 24 42 49 -8 21 -60 21 -78
0z"/>
<path d="M1562 1834 c-40 -27 -22 -74 28 -74 29 0 50 16 50 40 -1 39 -44 58
-78 34z"/>
<path d="M2025 2575 c-31 -30 -33 -82 -6 -141 31 -68 112 -83 175 -33 31 25
35 81 10 135 -23 48 -50 64 -107 64 -38 0 -53 -5 -72 -25z m145 -37 c42 -68
16 -129 -56 -131 -46 -1 -70 26 -80 89 -9 59 5 74 67 74 45 0 51 -3 69 -32z"/>
<path d="M1600 2501 c-66 -21 -108 -51 -120 -86 -23 -69 12 -169 66 -191 66
-28 193 -6 240 41 45 45 22 187 -37 229 -25 17 -103 21 -149 7z m128 -38 c39
-35 55 -130 27 -169 -22 -32 -65 -45 -135 -42 -61 3 -66 5 -87 37 -31 46 -31
110 0 138 24 23 105 51 148 52 15 1 36 -7 47 -16z"/>
<path d="M2837 1440 c-138 -35 -210 -137 -162 -230 23 -44 55 -47 138 -14 62
25 85 29 167 29 91 -1 104 -4 206 -45 64 -27 104 9 104 93 0 65 -29 103 -108
140 -62 29 -76 31 -187 34 -66 1 -137 -2 -158 -7z"/>
<path d="M2302 1379 c-82 -41 -100 -120 -72 -321 21 -151 -5 -338 -66 -485
-15 -35 -29 -63 -33 -63 -3 0 -15 7 -25 15 -29 22 -119 19 -167 -5 -93 -48
-113 -174 -43 -268 35 -45 73 -62 141 -62 129 0 236 92 287 244 6 18 8 19 24
3 12 -13 18 -42 22 -116 5 -107 14 -125 67 -148 122 -51 211 41 234 242 15
123 6 468 -15 647 -23 191 -63 275 -149 317 -59 28 -147 28 -205 0z m142 -289
c42 -38 53 -73 31 -107 -14 -21 -22 -24 -48 -19 -37 8 -71 37 -87 77 -10 24
-10 33 4 54 22 34 57 32 100 -5z m0 -350 c60 -53 57 -130 -5 -130 -55 0 -109
55 -109 113 0 55 60 64 114 17z"/>
<path d="M5210 1358 c-57 -30 -83 -76 -77 -139 11 -129 157 -181 249 -89 36
35 38 42 38 98 0 51 -4 65 -27 93 -29 34 -78 59 -116 59 -12 0 -43 -10 -67
-22z m138 -18 c34 -21 62 -71 62 -111 0 -35 -32 -90 -64 -111 -23 -14 -43 -18
-79 -15 -109 9 -158 135 -85 214 43 47 111 56 166 23z"/>
<path d="M5210 1230 c0 -53 4 -90 10 -90 6 0 10 18 10 40 0 36 3 40 24 40 16
0 36 -14 60 -42 42 -51 61 -44 21 8 l-27 36 21 14 c12 8 21 24 21 34 0 34 -28
50 -86 50 l-54 0 0 -90z m114 54 c10 -26 -13 -44 -55 -44 -37 0 -39 2 -39 30
0 29 2 30 44 30 31 0 46 -5 50 -16z"/>
<path d="M3835 1219 c-32 -18 -45 -40 -45 -75 0 -46 38 -74 100 -74 125 0 134
144 10 156 -25 3 -54 -1 -65 -7z"/>
<path d="M4664 1216 c-34 -15 -44 -33 -44 -76 0 -67 123 -98 175 -45 72 71
-31 166 -131 121z"/>
<path d="M2895 1166 c-28 -12 -55 -40 -113 -115 -12 -16 -35 -32 -51 -36 -37
-8 -63 -36 -42 -43 8 -3 53 -24 100 -48 202 -101 303 -231 286 -368 -13 -105
-42 -172 -96 -220 -77 -69 -155 -73 -147 -7 2 21 16 32 79 63 57 27 82 46 99
73 12 20 21 38 19 40 -9 8 -224 -57 -251 -76 -38 -27 -58 -69 -58 -119 0 -94
57 -135 174 -128 98 6 183 48 278 137 l74 69 109 -28 c134 -34 194 -55 445
-155 107 -42 242 -92 298 -111 332 -109 685 -122 938 -35 214 74 344 208 344
356 0 108 -59 165 -172 168 l-62 2 -8 -38 c-12 -55 -31 -89 -83 -139 -47 -47
-131 -97 -205 -123 -38 -13 -41 -13 -36 1 3 9 6 39 6 69 l0 53 94 4 c106 4
126 14 126 64 0 45 -23 56 -132 62 l-88 5 0 33 c0 19 0 37 0 42 0 4 40 5 89 3
108 -4 131 6 131 54 0 43 -29 64 -114 82 -75 16 -317 17 -403 2 -110 -19 -160
-72 -112 -120 20 -20 28 -21 121 -16 l99 6 -3 -42 -3 -42 -91 -6 c-50 -4 -101
-12 -113 -18 -32 -17 -38 -58 -13 -84 18 -18 37 -22 117 -25 l95 -4 1 -42 c0
-22 4 -62 8 -88 6 -39 5 -48 -8 -54 -33 -13 -300 -17 -345 -4 -42 12 -44 14
-35 38 33 88 -80 163 -146 97 -14 -13 -25 -33 -25 -45 0 -23 -20 -26 -70 -9
-32 11 -32 13 -26 57 3 25 6 53 6 63 0 17 9 19 105 19 96 0 105 2 115 21 15
27 5 66 -21 79 -11 6 -59 15 -106 20 -87 9 -103 17 -103 54 0 17 7 18 103 11
90 -6 106 -4 120 10 25 24 22 72 -6 89 -93 61 -487 67 -599 10 -22 -12 -28
-22 -28 -48 0 -53 19 -61 131 -58 l99 3 0 -31 c0 -22 -5 -30 -17 -31 -77 -2
-185 -18 -198 -29 -18 -15 -20 -76 -2 -87 6 -4 57 -10 112 -13 l100 -5 3 -38
3 -39 -33 7 c-18 4 -100 29 -183 55 -82 27 -178 54 -211 60 l-61 12 21 52 c18
44 21 71 21 210 l0 159 25 9 c14 5 37 7 53 4 31 -6 33 0 11 33 -20 28 -88 60
-127 61 -19 0 -45 17 -88 56 -82 75 -145 104 -229 104 -36 -1 -79 -7 -95 -14z"/>
<path d="M3760 1020 c-181 -22 -270 -79 -270 -170 0 -73 102 -109 155 -55 14
13 25 33 25 44 0 32 66 46 215 45 166 -2 224 -16 246 -62 19 -42 35 -52 79
-52 67 1 101 55 78 126 -11 33 -22 43 -68 66 -99 49 -317 76 -460 58z"/>
<path d="M4574 1020 c-178 -23 -288 -107 -254 -195 15 -39 38 -54 82 -55 54 0
68 9 88 56 17 39 22 43 67 51 74 12 251 9 321 -6 53 -12 65 -18 74 -40 16 -44
38 -61 80 -61 77 0 117 90 68 152 -56 72 -327 122 -526 98z"/>
<path d="M2911 768 c-12 -32 -47 -61 -108 -92 -57 -29 -73 -49 -73 -95 0 -76
98 -98 166 -39 45 40 74 99 74 153 0 70 -41 121 -59 73z"/>
</g>
</svg>
